<svg xmlns="http://www.w3.org/2000/svg" viewBox="0 0 180 180">
  <defs>
    <linearGradient id="grad" x1="0%" y1="0%" x2="100%" y2="100%">
      <stop offset="0%" style="stop-color:#ec4899"/>
      <stop offset="100%" style="stop-color:#f43f5e"/>
    </linearGradient>
    <linearGradient id="gold" x1="0%" y1="0%" x2="100%" y2="100%">
      <stop offset="0%" style="stop-color:#fbbf24"/>
      <stop offset="100%" style="stop-color:#f59e0b"/>
    </linearGradient>
  </defs>
  <rect width="180" height="180" rx="40" fill="url(#grad)"/>
  <ellipse cx="70" cy="105" rx="28" ry="28" fill="none" stroke="url(#gold)" stroke-width="8"/>
  <ellipse cx="110" cy="105" rx="28" ry="28" fill="none" stroke="url(#gold)" stroke-width="8"/>
  <path d="M90 55 C90 55 80 38 68 38 C52 38 45 52 45 62 C45 80 90 105 90 105 C90 105 135 80 135 62 C135 52 128 38 112 38 C100 38 90 55 90 55Z" fill="white" opacity="0.95"/>
  <polygon points="90,70 98,85 90,92 82,85" fill="#fef3c7"/>
</svg>