<svg xmlns="http://www.w3.org/2000/svg" viewBox="0 0 512 512">
  <defs>
    <linearGradient id="gradient" x1="0%" y1="0%" x2="100%" y2="100%">
      <stop offset="0%" style="stop-color:#ec4899;stop-opacity:1" />
      <stop offset="100%" style="stop-color:#f43f5e;stop-opacity:1" />
    </linearGradient>
    <linearGradient id="goldGradient" x1="0%" y1="0%" x2="100%" y2="100%">
      <stop offset="0%" style="stop-color:#fbbf24;stop-opacity:1" />
      <stop offset="100%" style="stop-color:#f59e0b;stop-opacity:1" />
    </linearGradient>
  </defs>
  <rect width="512" height="512" rx="96" fill="url(#gradient)"/>
  <text x="256" y="340" text-anchor="middle" font-family="Georgia,serif" font-weight="bold" font-size="260" fill="white">PO</text>
  <path d="M256 70 C256 70 232 40 210 40 C180 40 165 65 165 85 C165 120 256 155 256 155 C256 155 347 120 347 85 C347 65 332 40 302 40 C280 40 256 70 256 70Z" fill="url(#goldGradient)" opacity="0.9"/>
  <circle cx="150" cy="150" r="8" fill="white" opacity="0.6"/>
  <circle cx="362" cy="130" r="6" fill="white" opacity="0.6"/>
  <circle cx="400" cy="400" r="5" fill="white" opacity="0.5"/>
  <circle cx="112" cy="400" r="5" fill="white" opacity="0.5"/>
</svg>